<svg version="1" xmlns="http://www.w3.org/2000/svg" width="793.333" height="793.333" viewBox="0 0 595.000000 595.000000"><path d="M227.8 70.8l-6.7.3v42.7c0 54.7 0 53.6-.6 53.1-.2-.3-.7-2.3-.9-4.6-.3-2.3-1.3-8.1-2.1-13-.9-4.8-1.8-10.4-2.1-12.3-.8-5.8-2.4-11-3.5-11-.5 0-2 1-3.2 2.1-3.7 3.5-10 8-13.7 9.6-2.8 1.3-8.6 1.9-20.1 2.3-1.3 0-1.6 4-.4 5 1.2 1 10.2 1.5 13.5.7.8-.2 3.1-.7 5-1.1 1.9-.5 6.3-2.4 9.7-4.3 6.9-3.8 6.6-3.9 7.7 4.7.3 2.5.8 5.4 1 6.5 1.3 6.6 4.6 23.5 5.1 26.5 2.2 13.3 3.8 21 4.3 20.6.3-.3.4-5.3.3-11.1 0-5.8.3-10.5.7-10.5.5 0 .9.6.9 1.2 0 2.1 1.3 10.7 1.8 12 .2.7.7 3.1 1 5.3 1.3 9.4 1.7 10.5 3.6 10.5 2.1 0 2.4 1.6 1 5.2-.5 1.5-.4 4.7.5 8.8.7 3.6 1.6 8.3 1.9 10.5.3 2.2.8 4.7 1 5.5.3.8.7 3.5 1 6 1 8.5 1.6 12.5 2.4 18.4.9 6.9.5 15.7-1 20.3-1.6 4.9-6.4 8.5-10.8 8.1-2.8-.2-3.6-.7-3.6-2.3 0-1.1.5-2 1-2 9.5-.5 11.4-17 5.5-48-1.3-6.9-2.3-12.7-2.3-14.4 0-.8-1-.2-2.4 1.5l-2.3 2.9v-5c0-5.5-.5-5.3-4.3 2-14.4 27.7-17.1 49.9-7.3 59.6 3.1 3 9.4 6.8 10.9 6.5.4 0 .7 34.2.7 76.1V442h10v-10h5c4.7 0 5-.2 5-2.5 0-2.1.5-2.5 3-2.5 3 0 3-.1 3-5.4v-5.4l4.3.1 4.2.1V412c.1-3.9.4-4.5 2.3-4.8 2.2-.3 2.5.3 2.5 6 0 1.4.9 1.7 4.8 1.6 4.9 0 4.9 0 4.9-3.4 0-2.2.5-3.4 1.4-3.4 1.8 0 2.2 1.4 2.1 7.2 0 4.8.2 5 4 5 4 0 4.3-.2 4.3-4.5.1-6.5.1-6.7 1.7-6.7 1 0 1.5 1 1.5 3 0 2.4.4 3 2.3 3.1 1.2.1 2.9.2 3.7.3 2.9.3 6.5-1.1 6.6-2.5.2-3.4.5-4 1.3-3.5 2.5 1.6 3.8-.6 3.7-6.7 0-5.5.2-6.2 1.9-6.2s2 .7 1.9 4.2c-.1 4.3.2 4.5 4.1 4.5 3.2 0 3.5-.3 3.5-4.3 0-3.6.2-4 2.2-3.7 1.8.3 2.2 1 2.2 4.8l.1 4.5h4.7c5 .1 5.6-.4 5.3-4.7-.2-2.2.3-2.7 2.7-3 3.4-.5 4.1.3 4.4 5.2.1 1.9.3 3.5.4 3.5.1 0 .3 5.8.4 13l.1 13 3.5.2c1.9.1 4.1.2 4.8.2.6.1 1.2.8 1.2 1.6 0 2.3 11.5 1.7 11.6-.5.1-.8.2-2.1.2-2.8.1-.7 1.8-1.2 4.5-1.2h4.4l-.2-6-.2-6h3.3c1.9 0 3.3-.3 3.3-.8-.1-.4-.1-2.8 0-5.4l.1-4.7 4 .1h3.9l.3 6.7.3 6.6 4.7.1c3.2.1 4.8-.3 5.2-1.2.6-1.6 6.5-1.9 6.7-.4.1.5.3 2.8.4 5 .1 2.2.3 4.4.4 4.9 0 .5 1.8.8 3.9.7 3.6-.1 3.7 0 4 3.6.3 3.6.5 3.8 3.8 3.8 3.7 0 3.5.3 3.6-8.3 0-3.3.4-3.8 2.2-3.6 1.1 0 3.9.1 6.1 0l4.1-.1v-99.7l-.1-99.7 8-2.8c12.8-4.5 22.1-9.5 28.4-15.4 5.1-4.7 6.1-6.2 7.1-10.7 1.5-6.9.4-14.9-3-22.2-4.6-9.8-7.7-12.2-23.7-18.5-4.3-1.7-9.7-4.3-12-5.6-2.4-1.4-4.3-2.4-4.4-2.2-.1.2-.2 2-.3 4.1-.3 4.5.1 4.8 10.5 7.7 18.2 5 26.1 12.9 27.4 27.2.7 8.1-.2 10.6-6.6 16.8-6.1 5.9-17.1 11.2-30.8 14.7-.9.2-1.2 1.3-.9 3.2.4 2.7.1 3-3.1 3.7-2 .4-4.3.9-5.1 1.1-.8.2-5.8.6-11.1 1l-9.6.5.2-2.3c.1-1.3.3-2.7.4-3.1 0-.4 2.5-.7 5.4-.6 6.1.2 12.4-.7 18.7-2.5l4.5-1.3.1-29.9c0-16.5-.4-30.9-.9-32-.5-1.1-2.8-3.4-5-5-7.7-5.7-12.4-15.5-11.8-25 .4-8.1 9.2-22.4 16.2-26.5 1.4-.8 1.6-.4 1.3 3.2-.3 2.9-1.3 5.1-3.3 7.2-7.1 7.5-10 19-6.5 25.7 1.6 3.2 8.2 10.9 9.3 10.9.3 0 .6-8.9.5-19.7l-.1-19.8 2.7-2.5c6-5.5 19.4-10.9 38-15.1 10.5-2.3 13.1-3.9 11.3-6.7-1.3-2.1-.4-2.2-18.3 2.3-16.2 4-15.7 3.8-25.7 8.9-3.9 2-7.3 3.3-7.6 2.9-.2-.5-.3-6.8-.2-14.1l.1-13.2-4.1-.1c-9.1-.3-188.5-.4-194.7-.1zm124.3 64.4c0 .7.2 2 .4 2.8.1.8.6 3.5.9 6 .4 2.5.9 5.6 1.1 7 .2 1.4.7 5.2 1.1 8.5.3 3.3.8 6.3 1.1 6.8.2.4 1.9.7 3.6.5 7-.4 10.3 4.9 13.5 21.2 2.5 12.7 2.2 15.3-1.8 14.3-1.9-.5-2.5-2.1-3.5-8.9-.9-5.6-3.6-16.6-4.7-18.7-2.2-4.2-6.1 0-5.3 5.9.2 1.6.6 4.8.9 7.1.4 2.4.9 6 1.2 8 1.1 7.6 1.1 7.8-1.6 7.8-2.6 0-3.2-1.6-4.5-12.5-.4-3-.8-5.7-1-6-.1-.3-.6-3.2-.9-6.5-.4-3.3-.9-6.7-1.1-7.5-.2-.8-.6-3.8-1-6.5-.7-5.8-1.4-10.9-2.1-14.5-.2-1.4-.7-5.5-1-9.3l-.7-6.7h2.7c1.4 0 2.6.6 2.7 1.2zm-17.7 1.6c.2.4.7 2.8 1.1 5.2.3 2.5 1.5 10.3 2.6 17.5 2 13.3 2.8 18.1 3.4 22.5 1.4 9.6 1.7 11.9 2.6 14.7 1 3.3 3.1 4.7 5.8 3.8 2.3-.7 4.5 1 3.8 2.9-.6 1.5-5.3 2.2-10.8 1.7-.9-.1-3.4 1-5.5 2.4-4.9 3.4-11.7 3.1-14.6-.6-5-6.6-6.6-19.7-3.3-28.5 1.8-4.8 4.7-6.6 10.9-6.8 2.5 0 4.6-.1 4.6-.2s-.4-2.4-1-5.2c-.5-2.9-1.2-7.5-1.5-10.4-.4-2.9-.8-5.5-1-5.8-.2-.3-.6-3.6-1-7.3-.7-6.3-.6-6.7 1.3-6.7 1.2 0 2.3.3 2.6.8zm77.4 11.7c.2.1.5 1.6.6 3.1.7 5.7-4.8 8.3-9.4 4.6-4.5-3.7-.3-9.6 6-8.5 1.3.2 2.6.6 2.8.8zm-3.9 13.7c.5 1.3 2 7.5 3.2 13.8 2.4 12.6 3.4 15.4 5.3 14.7 2-.8 4 .9 3.3 2.7-.5 1.1-1.9 1.6-5 1.6h-4.4l-1.6-6.3c-1.4-5.3-4.1-18.7-5.1-25.2-.2-1.1-.1-2.3.1-2.8.9-1.5 3.4-.6 4.2 1.5zm-8.3 2.5c.3 1.6.7 3.4 1 4.1.2.7.7 4.5 1 8.5 1.5 15 .6 18.4-5.4 21.3-3.4 1.6-11.2 2.1-13.3.9-2.6-1.7-5.6-13.3-6.4-25-.5-8.4.2-11 2.7-10 1.1.4 1.7 2.7 2.2 7.8 1.1 11.6 1.5 13.6 3.5 18.3 1.7 3.8 2.4 4.4 5.1 4.4 2 0 4-.9 5.6-2.5 2.2-2.2 2.5-3.1 2-7.5-.3-2.8-.8-7.4-1.1-10.3-.3-2.8-.8-6.4-1.1-7.9-1-5.1 3.1-7 4.2-2.1zm-89.1 14.8c3.4 4.1 5.2 12 6.2 26.1l.6 9.1-3.8 4.1c-2.1 2.4-6.4 5.5-9.9 7.1-3.3 1.6-10.5 5-15.8 7.5-9.8 4.6-13 7.5-14.4 13-.7 3 1.2 5.8 5.6 8.1 2.9 1.5 15.4 1.2 24.9-.5 7.6-1.3 12.3-1.9 21-2.6 4.1-.3 7.8-.7 8.2-1 1.8-1.1 1.8 1.7-.1 3.6-1.3 1.3-3.4 2-6.2 2.1-2.4 0-5.1.2-6.1.4s-5.1.9-9 1.5c-4 .7-8.1 1.4-9.2 1.6-20.3 3.8-35.4.1-35.5-8.6 0-5.2 2.2-10 6.5-14.3 5.3-5.3 9.8-8 22.8-13.7 7.3-3.3 10.7-5.4 13.2-8.3 1.9-2.2 3.2-4.4 2.9-4.8-.3-.5-2.6 0-5.2 1-6.1 2.3-13.1 1.9-15.4-.9-3-3.8-3.6-17.2-.9-24.1.5-1.5 2.4-4.3 4.2-6.4 3.1-3.5 3.4-3.6 8.3-3.1 3.8.5 5.6 1.3 7.1 3.1zm-30.5 9.3c1.9 9.7 1.8 21.4-.4 24.7-2.7 4.1-10.1 5.9-14.7 3.5-4.4-2.4-7.7-14.1-7.5-26.8.1-7 .3-7.7 2.1-7.7s2 .7 2.1 8c.2 10 2.9 20.1 5.9 22.1 4.6 3 9.8-1.5 9.8-8.5 0-5.2-1.3-15.2-2.2-17.1-.9-1.8-.8-3.1.2-4.7 1.6-2.5 3.4 0 4.7 6.5zm-29.9-3.8c2.7 1.5 4.8 6.1 4.2 9.2-.7 3.4-5.1 7.6-9.9 9.3-3.3 1.1-3.9 1.8-4 4.2 0 1.5.6 4.1 1.3 5.6 1.3 2.7 1.7 2.8 7.4 2.4 4.6-.3 6.2-.1 6.6 1 .9 2.4-.9 3.2-8.3 3.9-6.6.6-7.1.5-8.5-1.7-1.6-2.4-5.1-14.1-5.1-16.9 0-4.7 3.2-14.5 5.2-16.2 2.4-2 8-2.4 11.1-.8zm-29.6 97.8c-1 1-5.5-3-8-7.3-5.3-8.9-3.9-20.4 4.9-40l3.1-6.9.3 26.8c.1 14.8 0 27.1-.3 27.4zm47.9 30.6c1.8.8 5.1 3.1 7.3 5.3 14.2 13.9 10.5 37.1-7.3 45.8-17.7 8.7-39.4-4-40.5-23.5-1.1-21.8 20-36.2 40.5-27.6zm68.2.9c7.4 3.9 14 13.8 14.7 22.3 1 11.9-6.8 24.2-18.1 28.4-15.4 5.9-31.4-2.1-36.8-18.2-5-15.2 6.5-33.4 22.4-35.5 2-.3 3.8-.6 4-.8.6-.6 10.8 2.2 13.8 3.8zm61.9-2.1c10 3 16.6 10.4 19.5 21.7 3.5 13.3-6.4 28.5-21 32.4-8.5 2.2-16.1.5-23.6-5.2-5.7-4.3-10.3-12.5-11.1-19.5-1.5-13 7.7-25.9 21.2-29.8 5.5-1.6 8.9-1.5 15 .4z"/><path d="M327 179.5c-4.5 4.8-3.7 20 1.2 22.6 2.6 1.4 7.2-.4 8.6-3.5 1.3-3 .6-11.4-1.4-16.2-2.5-6.1-4.7-6.8-8.4-2.9zM300.1 185.5c-1.7 2-3.2 5.1-3.6 7.7-.4 2.4-.9 5-1 5.8-.2.9.3 3 1.1 4.8 1.1 2.6 1.9 3.2 4.4 3.2 3.5 0 8.9-4.6 9.1-7.7.6-8.4-1.6-15.7-5-16.6-1.5-.4-2.9.4-5 2.8zM241.6 191.5c-1 1.4-1.8 3.8-1.9 5.3-.2 2.2.2 2.6 1.8 2.4 2.4-.4 6.4-3.2 7.9-5.4.7-1.2.6-2.1-.3-3.2-2-2.4-5.6-2-7.5.9zM247.8 318.8l-5.8.3V357h8v-12h3.3c2.9 0 3.8.7 7.3 5.7 3 4.5 4.6 5.9 6.8 6.1 1.6.2 3.2 0 3.7-.5.4-.4-.6-3.7-2.4-7.1l-3.2-6.3 2.7-2c3.2-2.4 5.2-8.6 4.3-13-.9-4.2-5.8-8.9-9.2-9-1.5 0-4.4-.1-6.3-.2-1.9-.1-6.1-.1-9.2.1zm15.7 8.5c2.3 3.3 1.8 6.3-1.6 9.1-2.3 1.9-4.2 2.6-7.4 2.6h-4.4l.1-6.3c0-3.4.4-6.7.9-7.2.4-.6 3-.8 5.8-.7 3.8.3 5.5.9 6.6 2.5zM317.2 320.9c-8.4 3.4-12.5 9.2-12.5 17.6 0 13.4 12.4 22.4 25.3 18.3 4.9-1.5 10.6-7.6 12-12.7 4-15.1-10.7-28.8-24.8-23.2zm10.3 7.5c3.6 1.5 7.5 6.7 7.5 9.9 0 3.3-2.9 8.2-5.9 10-4.6 2.7-8.6 2.2-12.6-1.6-7-6.4-4.3-16.6 5-19 1.1-.2 2.1-.5 2.3-.6.1 0 1.8.5 3.7 1.3zM398.8 318.8c-1.5.3-1.8 1.8-2 10l-.3 9.7-6.5-9.8-6.4-9.8-4 .3-3.9.3V337c.1 9.6.2 18.1.2 18.8.1.9 1.3 1.2 3.9 1l3.7-.4.1-8.7c0-4.8.3-8.9.6-9.2.3-.3 3.3 3.7 6.8 9 5.8 8.8 6.5 9.5 9.6 9.5 1.8 0 3.5-.4 3.8-.8.5-.9.8-14.5.7-28.8-.1-7.6-.2-8.2-2.3-8.6-1.3-.2-3.1-.2-4 0zM12.3 84.7c-2.8 1.1-1.1 5.8 5 14.2 3.5 4.7 11.5 15.6 17.7 24.1 20.2 27.7 30.5 41.5 31 42 .3.3 1.4 1.8 2.4 3.5 1 1.6 6.9 9.7 13.1 18 6.1 8.2 14.9 20.2 19.5 26.5 4.6 6.3 13.2 18 19 26 5.8 8 19.3 26.4 29.9 41 10.6 14.6 19.9 27.1 20.7 27.9 1.1 1.2 1.8 1.2 3.9.3 1.4-.7 2.8-1.8 3.1-2.6.3-.9-2.3-5.4-6.3-10.8-3.8-5.1-12.2-16.5-18.6-25.3-6.4-8.8-19.5-26.6-29-39.5-9.5-12.9-27.6-37.7-40.2-55-12.7-17.3-23.5-32.2-24.2-33-.7-.8-4.2-5.6-7.8-10.5-8.3-11.6-8.1-11.3-16.5-22.5-3.9-5.2-6.7-9.6-6.3-9.7.5-.2 18.2 7.1 39.3 16.3 21.2 9.1 59.4 25.6 85 36.6s47.2 20.3 48.2 20.5c1 .3 2.3-.5 3.4-2.2 2.3-3.5 1.6-4.1-12.1-9.8-6-2.5-14.5-6.1-18.8-8.1-4.2-2-7.9-3.6-8.2-3.6-.3 0-4.5-1.8-9.3-4.1-4.8-2.2-26.5-11.7-48.2-21-21.7-9.4-40.8-17.6-42.5-18.4-10.3-4.7-47.4-20.3-49.5-20.7-1.4-.3-3.1-.4-3.7-.1zM221 210.3c0 2 .4 3.7.9 3.7s.8-1.4.6-3.1c-.6-4.5-1.5-4.9-1.5-.6z"/><path d="M430 266.1c-.6 1.1-1 2.7-.8 3.5.3 1.8-4.1-.2 77.8 34.9 55.8 23.9 67.9 29.5 64.4 29.5-.6 0-1.9.8-3 1.8-1 1-8.9 7.2-17.4 13.7-8.5 6.5-20.5 15.7-26.6 20.4-17.5 13.4-77.8 59.9-99.4 76.5-10.7 8.2-23.3 17.9-28 21.5-8.8 6.7-16.5 12.6-45.3 34.8-9.5 7.3-17.5 13.2-17.9 13.3-.7 0-5.6-6.7-47.7-64.4-12.4-16.9-23.1-31.1-23.9-31.3-.7-.3-2.5.5-3.8 1.9l-2.5 2.4 6.6 9c3.6 4.9 9.8 13.3 13.8 18.7 3.9 5.4 8.2 11.3 9.4 13 1.3 1.8 3.3 4.6 4.5 6.4 1.3 1.7 10.8 14.6 21.1 28.7 15.4 20.9 19.3 25.6 21.2 25.6 2.3 0 7.6-3.8 38.7-27.7 6.9-5.4 20.8-16.1 30.8-23.8 10.1-7.7 27.3-21 38.4-29.5 24.8-19.2 52.7-40.6 74-56.8 8.8-6.8 17.1-13.2 18.2-14.2 1.2-1 6.6-5.1 12-9.2 5.5-4 10.4-7.8 11-8.3.6-.6 7.2-5.7 14.7-11.4 7.5-5.7 13.8-11 14.1-11.8 1.1-2.8-1.4-5.1-9.1-8.3-4.3-1.8-10-4.3-12.8-5.6-2.7-1.2-7.9-3.5-11.5-4.9-5.9-2.5-34.2-14.7-41.5-18-1.6-.8-8.4-3.6-15-6.3-6.6-2.8-21-8.9-32-13.7-11-4.8-21.9-9.6-24.3-10.6-5.5-2.4-6.9-2.4-8.2.2zM180.1 311c-13.1 4.4-20.5 16.1-19.4 30.5 1.3 15.8 12.7 26.7 28.1 26.9 9.8 0 15.4-1.9 21.2-7.3 6.8-6.4 9.4-12.6 9.4-22.1-.1-12.4-5.5-21.5-15.9-26.5-6.7-3.3-16.3-3.9-23.4-1.5zm24.3 10.7c1 2.6-.6 4.3-3.9 4.3-1.8 0-4.2.8-5.4 1.7-1.8 1.6-2.1 3.1-2.3 14.6l-.3 12.8-2.5-.3c-2.5-.3-2.5-.3-2.5-11.8-.1-14.9-.4-15.7-6.1-16.6-4.5-.6-6.1-2.1-5.1-4.7.7-2 27.4-2 28.1 0z"/><path d="M451.3 310.1c-8.9 1.7-16.1 7.1-20.6 15.4-3.2 5.9-3.2 21.2 0 27.2 3 5.5 8.4 10.6 14.1 13.4 7 3.4 18.9 3.2 25.7-.3 12.8-6.6 18.7-18.7 15.9-32.5-1.4-6.9-3.1-10.6-6.9-14.6-7.2-7.6-17.4-10.7-28.2-8.6zm1.2 15.9c0 3.4.5 5.5 1.3 5.8.7.2 4-2.3 7.3-5.7 4.3-4.3 6.7-6 8.2-5.7 3.5.5 3 2.1-2.3 7.2-4.4 4.3-8 9.1-8 10.8 0 .3 2.9 3.8 6.5 7.7 3.6 3.9 6.5 7.5 6.5 8s-1.3.9-2.8.9c-2.1 0-4.3-1.5-8.7-6-3.3-3.3-6.3-6-6.7-6-.4 0-.8 2.7-.8 6v6h-7v-35.1l3.3.4c3.2.3 3.2.4 3.2 5.7z"/></svg>